<?xml version="1.0"?>
<svg width="503.322" height="503.322" xmlns="http://www.w3.org/2000/svg" xmlns:svg="http://www.w3.org/2000/svg" version="1.1" xml:space="preserve">
 <g class="layer">
  <title>Layer 1</title>
  <g id="svg_1">
   <g id="svg_2">
    <path d="m774.4,-252l-264.87,0l-264.87,0l-264.87,0l-264.87,0c-11.36,0 -18.92,6.12 -18.92,15.32l0,122.52l0,122.54l0,122.52l0,122.52l0,122.54l0,122.52l0,122.54c0,9.18 7.57,15.3 18.92,15.3l264.87,0l264.87,0l264.87,0l264.89,0c11.34,0 18.9,-6.12 18.9,-15.3l0,-122.54l0,-122.52l0,-122.54l0,-122.52l0,-122.54l0,-122.52l0,-122.52c0,-9.2 -7.57,-15.32 -18.92,-15.32zm-264.87,735.16l-113.5,0l0,-91.9l113.5,0l113.52,0l0,91.9l-113.52,0zm-264.87,0l-113.52,0l0,-91.9l113.52,0l113.52,0l0,91.9l-113.52,0zm-264.87,0l-113.52,0l0,-91.9l113.52,0l113.52,0l0,91.9l-113.52,0zm-245.94,0l0,-91.9l94.6,0l0,91.9l-94.6,0zm245.94,-582l113.52,0l0,91.9l-113.52,0l-113.52,0l0,-91.9l113.52,0zm264.87,0l113.52,0l0,91.9l-113.52,0l-113.52,0l0,-91.9l113.52,0zm264.87,0l113.52,0l0,91.9l-113.52,0l-113.5,0l0,-91.9l113.5,0zm245.97,0l0,91.9l-94.6,0l0,-91.9l94.6,0zm0,214.42l-113.52,0l-113.52,0l0,-91.9l113.52,0l113.52,0l0,91.9zm0,122.52l-94.6,0l0,-91.88l94.6,0l0,91.88zm0,122.54l-113.52,0l-113.52,0l0,-91.9l113.52,0l113.52,0l0,91.9zm-378.39,0l-113.52,0l0,-91.9l113.52,0l113.5,0l0,91.9l-113.5,0zm-264.89,0l-113.5,0l0,-91.9l113.5,0l113.52,0l0,91.9l-113.52,0zm-264.87,0l-113.5,0l0,-91.9l113.5,0l113.52,0l0,91.9l-113.52,0zm-113.5,-214.42l94.6,0l0,91.88l-94.6,0l0,-91.88zm0,-122.54l113.5,0l113.52,0l0,91.9l-113.52,0l-113.5,0l0,-91.9zm378.37,0l113.52,0l0,91.9l-113.5,0l-113.52,0l0,-91.9l113.5,0zm264.89,0l113.5,0l0,91.9l-113.5,0l-113.52,0l0,-91.9l113.52,0zm245.94,214.42l-113.52,0l-113.52,0l0,-91.88l113.52,0l113.52,0l0,91.88zm-378.39,0l-113.52,0l0,-91.88l113.52,0l113.52,0l0,91.88l-113.52,0zm-264.87,0l-113.52,0l0,-91.88l113.52,0l113.52,0l0,91.88l-113.52,0zm-151.35,-245.04l-94.6,0l0,-91.9l94.6,0l0,91.9zm832.45,398.22l94.6,0l0,91.88l-94.6,0l0,-91.88zm94.6,-520.76l-113.52,0l-113.52,0l0,-91.88l227.04,0l0,91.88zm-264.87,0l-113.52,0l-113.52,0l0,-91.88l227.04,0l0,91.88zm-264.89,0l-113.5,0l-113.52,0l0,-91.88l227.02,0l0,91.88zm-491.89,-91.88l227.02,0l0,91.88l-113.52,0l-113.5,0l0,-91.88zm0,735.16l113.5,0l113.52,0l0,91.9l-227.02,0l0,-91.9zm264.87,0l113.52,0l113.5,0l0,91.9l-227.02,0l0,-91.9zm264.87,0l113.52,0l113.5,0l0,91.9l-227.02,0l0,-91.9zm491.91,91.9l-227.04,0l0,-91.9l113.52,0l113.52,0l0,91.9z" id="svg_3"/>
   </g>
  </g>
 </g>
</svg>